<?xml version="1.0" encoding="UTF-8"?>
<svg id="Capa_2" data-name="Capa 2" xmlns="http://www.w3.org/2000/svg" viewBox="0 0 470 138">
  <defs>
    <style>
      .cls-2 {
        fill: #ff6b03;
      }
    </style>
  </defs>
  <path class="cls-2" d="M188,47c0-25.85,21.15-47,47-47h0c25.85,0,47,21.15,47,47,0-25.85,21.15-47,47-47h0c25.85,0,47,21.15,47,47,0-25.85,21.15-47,47-47h0c25.85,0,47,21.15,47,47v91S0,138,0,138V47C0,21.15,21.15,0,47,0h0c25.85,0,47,21.15,47,47,0-25.85,21.15-47,47-47h0c25.85,0,47,21.15,47,47Z"/>
</svg>